<mxfile host="Electron" modified="2024-06-09T09:40:15.675Z" agent="Mozilla/5.0 (Macintosh; Intel Mac OS X 10_15_7) AppleWebKit/537.36 (KHTML, like Gecko) draw.io/24.4.13 Chrome/124.0.6367.207 Electron/30.0.6 Safari/537.36" etag="qriFOQRfNKU586ri8k92" version="24.4.13" type="device">
  <diagram id="C5RBs43oDa-KdzZeNtuy" name="Page-1">
    <mxGraphModel dx="954" dy="610" grid="1" gridSize="10" guides="1" tooltips="1" connect="1" arrows="1" fold="1" page="1" pageScale="1" pageWidth="827" pageHeight="1169" math="0" shadow="0">
      <root>
        <mxCell id="WIyWlLk6GJQsqaUBKTNV-0" />
        <mxCell id="WIyWlLk6GJQsqaUBKTNV-1" parent="WIyWlLk6GJQsqaUBKTNV-0" />
        <mxCell id="ZRuJOD2GWKsR1Cgy51a8-8" value="Start" style="whiteSpace=wrap;strokeWidth=2;" vertex="1" parent="WIyWlLk6GJQsqaUBKTNV-1">
          <mxGeometry x="165" y="20" width="50" height="34" as="geometry" />
        </mxCell>
        <mxCell id="ZRuJOD2GWKsR1Cgy51a8-9" value="Begin While Loop" style="whiteSpace=wrap;strokeWidth=2;" vertex="1" parent="WIyWlLk6GJQsqaUBKTNV-1">
          <mxGeometry x="121" y="110" width="138" height="34" as="geometry" />
        </mxCell>
        <mxCell id="ZRuJOD2GWKsR1Cgy51a8-10" value="Is button_aÂ &#xa;ingedrukt?" style="rhombus;strokeWidth=2;whiteSpace=wrap;" vertex="1" parent="WIyWlLk6GJQsqaUBKTNV-1">
          <mxGeometry x="100" y="200" width="130" height="80" as="geometry" />
        </mxCell>
        <mxCell id="ZRuJOD2GWKsR1Cgy51a8-11" value="Toon SMILE" style="whiteSpace=wrap;strokeWidth=2;" vertex="1" parent="WIyWlLk6GJQsqaUBKTNV-1">
          <mxGeometry x="60" y="330" width="93" height="40" as="geometry" />
        </mxCell>
        <mxCell id="ZRuJOD2GWKsR1Cgy51a8-12" value="Is button_b&#xa;ingedrukt?" style="rhombus;strokeWidth=2;whiteSpace=wrap;" vertex="1" parent="WIyWlLk6GJQsqaUBKTNV-1">
          <mxGeometry x="100" y="420" width="130" height="80" as="geometry" />
        </mxCell>
        <mxCell id="ZRuJOD2GWKsR1Cgy51a8-13" value="Toon SAD" style="whiteSpace=wrap;strokeWidth=2;" vertex="1" parent="WIyWlLk6GJQsqaUBKTNV-1">
          <mxGeometry x="69" y="560" width="80" height="34" as="geometry" />
        </mxCell>
        <mxCell id="ZRuJOD2GWKsR1Cgy51a8-14" value="Herhaal While Loop" style="whiteSpace=wrap;strokeWidth=2;" vertex="1" parent="WIyWlLk6GJQsqaUBKTNV-1">
          <mxGeometry x="104" y="660" width="155" height="34" as="geometry" />
        </mxCell>
        <mxCell id="ZRuJOD2GWKsR1Cgy51a8-15" value="" style="curved=1;startArrow=none;endArrow=block;exitX=0.4941015625;exitY=0.9852941176470589;entryX=0.4978628849637681;entryY=-0.014705882352941176;rounded=0;" edge="1" parent="WIyWlLk6GJQsqaUBKTNV-1" source="ZRuJOD2GWKsR1Cgy51a8-8" target="ZRuJOD2GWKsR1Cgy51a8-9">
          <mxGeometry relative="1" as="geometry">
            <Array as="points" />
          </mxGeometry>
        </mxCell>
        <mxCell id="ZRuJOD2GWKsR1Cgy51a8-16" value="" style="startArrow=none;endArrow=block;entryX=0.5006573016826923;entryY=0;rounded=0;" edge="1" parent="WIyWlLk6GJQsqaUBKTNV-1" source="ZRuJOD2GWKsR1Cgy51a8-9" target="ZRuJOD2GWKsR1Cgy51a8-10">
          <mxGeometry relative="1" as="geometry" />
        </mxCell>
        <mxCell id="ZRuJOD2GWKsR1Cgy51a8-17" value="Ja" style="startArrow=none;endArrow=block;exitX=0.32813120673100715;exitY=0.9988731971153846;entryX=0.4991389448924731;entryY=0.0078125;rounded=0;" edge="1" parent="WIyWlLk6GJQsqaUBKTNV-1" source="ZRuJOD2GWKsR1Cgy51a8-10" target="ZRuJOD2GWKsR1Cgy51a8-11">
          <mxGeometry relative="1" as="geometry" />
        </mxCell>
        <mxCell id="ZRuJOD2GWKsR1Cgy51a8-18" value="" style="startArrow=none;endArrow=block;exitX=0.4991389448924731;exitY=0.9931066176470589;entryX=0.31566140741169413;entryY=-0.0011268028846153845;rounded=0;" edge="1" parent="WIyWlLk6GJQsqaUBKTNV-1" source="ZRuJOD2GWKsR1Cgy51a8-11" target="ZRuJOD2GWKsR1Cgy51a8-12">
          <mxGeometry relative="1" as="geometry" />
        </mxCell>
        <mxCell id="ZRuJOD2GWKsR1Cgy51a8-19" value="Nee" style="startArrow=none;endArrow=block;exitX=0.6910284886053533;exitY=0.9988731971153846;entryX=0.7047880911615334;entryY=-0.0011268028846153845;rounded=0;" edge="1" parent="WIyWlLk6GJQsqaUBKTNV-1" source="ZRuJOD2GWKsR1Cgy51a8-10" target="ZRuJOD2GWKsR1Cgy51a8-12">
          <mxGeometry relative="1" as="geometry" />
        </mxCell>
        <mxCell id="ZRuJOD2GWKsR1Cgy51a8-20" value="Ja" style="startArrow=none;endArrow=block;exitX=0.3399896509408703;exitY=1.0001878004807692;entryX=0.49658203125;entryY=-0.013556985294117647;rounded=0;" edge="1" parent="WIyWlLk6GJQsqaUBKTNV-1" source="ZRuJOD2GWKsR1Cgy51a8-12" target="ZRuJOD2GWKsR1Cgy51a8-13">
          <mxGeometry relative="1" as="geometry" />
        </mxCell>
        <mxCell id="ZRuJOD2GWKsR1Cgy51a8-21" value="" style="startArrow=none;endArrow=block;exitX=0.49658203125;exitY=0.9717371323529411;entryX=0.2506310966776125;entryY=0.0011488970588235295;rounded=0;" edge="1" parent="WIyWlLk6GJQsqaUBKTNV-1" source="ZRuJOD2GWKsR1Cgy51a8-13" target="ZRuJOD2GWKsR1Cgy51a8-14">
          <mxGeometry relative="1" as="geometry" />
        </mxCell>
        <mxCell id="ZRuJOD2GWKsR1Cgy51a8-22" value="Nee" style="startArrow=none;endArrow=block;exitX=0.6911436473902319;exitY=1.0001878004807692;entryX=0.5018649193548387;entryY=0.0011488970588235295;rounded=0;" edge="1" parent="WIyWlLk6GJQsqaUBKTNV-1" source="ZRuJOD2GWKsR1Cgy51a8-12" target="ZRuJOD2GWKsR1Cgy51a8-14">
          <mxGeometry relative="1" as="geometry" />
        </mxCell>
        <mxCell id="ZRuJOD2GWKsR1Cgy51a8-24" value="" style="endArrow=classic;html=1;rounded=0;entryX=1;entryY=0.5;entryDx=0;entryDy=0;curved=1;" edge="1" parent="WIyWlLk6GJQsqaUBKTNV-1" target="ZRuJOD2GWKsR1Cgy51a8-9">
          <mxGeometry width="50" height="50" relative="1" as="geometry">
            <mxPoint x="260" y="680" as="sourcePoint" />
            <mxPoint x="270" y="340" as="targetPoint" />
            <Array as="points">
              <mxPoint x="320" y="560" />
              <mxPoint x="320" y="230" />
              <mxPoint x="310" y="140" />
            </Array>
          </mxGeometry>
        </mxCell>
      </root>
    </mxGraphModel>
  </diagram>
</mxfile>
